Coordinates
version=1
nRows=11
nColumns=40
inDegrees=yes

Units are S.I. units (second, meters, Newtons, ...)
Angles are in degrees.

endheader
time	pelvis_tilt	pelvis_list	pelvis_rotation	pelvis_tx	pelvis_ty	pelvis_tz	hip_flexion_r	hip_adduction_r	hip_rotation_r	knee_angle_r	knee_angle_r_beta	ankle_angle_r	subtalar_angle_r	mtp_angle_r	hip_flexion_l	hip_adduction_l	hip_rotation_l	knee_angle_l	knee_angle_l_beta	ankle_angle_l	subtalar_angle_l	mtp_angle_l	lumbar_extension	lumbar_bending	lumbar_rotation	arm_flex_r	arm_add_r	arm_rot_r	elbow_flex_r	pro_sup_r	wrist_flex_r	wrist_dev_r	arm_flex_l	arm_add_l	arm_rot_l	elbow_flex_l	pro_sup_l	wrist_flex_l	wrist_dev_l
     12.10000000	     -2.17474059	     -3.91536874	      2.42985144	      0.72528002	      0.93447797	      0.49303932	     11.13210750	      2.57772158	    -16.42962954	     16.40577632	     16.40577632	      9.54889276	      1.13505917	     -3.83034267	     25.14190184	    -11.86345655	     -2.03622190	     53.36160798	     53.36160798	     12.26525436	    -18.42106946	     13.27507649	    -10.11711296	      8.25178699	      2.22375756	     12.02817930	    -19.91271144	     -6.40573882	     58.84009258	     45.16916870	      0.00000000	      0.00000000	     -0.53760787	     -9.43853184	     -5.41273692	     42.76119190	     45.34045122	      0.00000000	      0.00000000
     12.11307143	     -2.46337466	     -3.77673673	      2.65833658	      0.72366579	      0.93456943	      0.49340218	     10.67944099	      2.56328635	    -16.57429845	     15.68181850	     15.68181850	      9.72448295	      1.37064098	     -3.84200566	     26.10808176	    -11.49566649	     -2.06253493	     50.68811693	     50.68811693	     12.56583462	    -18.37223858	     13.44172100	     -9.92796789	      8.09271910	      2.28042903	     12.83521723	    -19.81849516	     -6.49244388	     59.36300285	     45.16062056	      0.00000000	      0.00000000	     -1.26413419	     -9.44628078	     -5.38551063	     41.99505407	     45.33294125	      0.00000000	      0.00000000
     12.12614286	     -2.52232504	     -3.78029513	      2.92656008	      0.72219942	      0.93490737	      0.49377185	      9.90942857	      2.71929795	    -16.88807058	     14.82795099	     14.82795099	      9.80084518	      1.77380814	     -4.00058174	     26.64532004	    -11.22384697	     -1.98258263	     47.69502259	     47.69502259	     12.63638138	    -18.33372605	     13.44420787	    -10.00050275	      8.15729445	      1.96676334	     13.90802177	    -19.40829555	     -6.58072380	     60.25923045	     45.14235374	      0.00000000	      0.00000000	     -1.89442195	     -9.54555828	     -5.37859104	     40.47518011	     45.33330289	      0.00000000	      0.00000000
     12.13921429	     -2.71086553	     -3.79478774	      3.16487808	      0.72068916	      0.93489203	      0.49406425	      9.30856022	      2.86198905	    -17.25688730	     13.99654786	     13.99654786	      9.68936472	      2.25323018	     -4.87065086	     27.16819846	    -10.94744634	     -1.95899178	     44.47854782	     44.47854782	     12.24625057	    -18.18282273	     12.41553289	     -9.87333785	      8.25005652	      2.09486955	     14.64669667	    -19.33752576	     -6.77697306	     61.30206167	     45.13399038	      0.00000000	      0.00000000	     -1.78162355	     -9.31350984	     -5.64896366	     37.45025485	     45.40677628	      0.00000000	      0.00000000
     12.15228571	     -2.91972954	     -3.71006675	      3.33080534	      0.71910856	      0.93479025	      0.49437240	      8.89328274	      2.90045510	    -17.27084391	     13.47253323	     13.47253323	      9.86526984	      2.25520048	     -4.96176314	     27.59944862	    -10.51235417	     -1.92613775	     41.20639292	     41.20639292	     12.22933642	    -17.85067092	     12.66599931	     -9.79691237	      8.15627738	      2.20811452	     15.43906030	    -19.19138897	     -6.90004226	     62.05006984	     45.11966529	      0.00000000	      0.00000000	     -2.45634226	     -9.35119530	     -5.67504930	     36.79150214	     45.40779854	      0.00000000	      0.00000000
     12.16535714	     -3.07596183	     -3.70111345	      3.52673731	      0.71756226	      0.93467954	      0.49456960	      8.36534412	      3.02269208	    -17.40719793	     12.82923475	     12.82923475	      9.98199090	      2.43489182	     -5.12913432	     27.91744587	    -10.10359055	     -1.77088522	     37.89547680	     37.89547680	     12.10586942	    -17.36612083	     12.78541082	     -9.77869514	      8.16158684	      2.09620807	     16.35327506	    -18.84371620	     -7.01981764	     63.08155042	     45.09646646	      0.00000000	      0.00000000	     -3.10114154	     -9.41244088	     -5.67989871	     35.82510267	     45.40767558	      0.00000000	      0.00000000
     12.17842857	     -3.19641148	     -3.77783964	      3.74850675	      0.71597755	      0.93446609	      0.49466870	      7.80656800	      3.22172385	    -17.66298245	     12.17372388	     12.17372388	     10.02304169	      2.76676233	     -5.49790298	     28.19218062	     -9.75059113	     -1.50913442	     34.64410240	     34.64410240	     11.82639851	    -16.70543358	     12.50767041	     -9.81982338	      8.27704938	      1.92521683	     17.27448883	    -18.45618864	     -7.17471629	     64.42182269	     45.06666853	      0.00000000	      0.00000000	     -3.57320743	     -9.40905476	     -5.68411937	     34.50237528	     45.41554202	      0.00000000	      0.00000000
     12.19150000	     -3.38754202	     -3.81660310	      3.92072820	      0.71447257	      0.93400749	      0.49472230	      7.34186054	      3.36141729	    -17.94294755	     11.54253939	     11.54253939	      9.84328201	      3.08086149	     -6.69089861	     28.44769067	     -9.41473945	     -1.45240926	     31.35024413	     31.35024413	     10.81471512	    -15.78294836	     10.30969301	     -9.72445712	      8.34710713	      2.41191224	     17.44208428	    -18.44431743	     -7.70140785	     66.56272716	     45.04289777	      0.00000000	      0.00000000	     -3.27061463	     -9.23775651	     -5.83773826	     32.12812088	     45.49907058	      0.00000000	      0.00000000
     12.20457143	     -3.58148053	     -3.84463208	      4.09424116	      0.71291108	      0.93353536	      0.49473942	      6.99953638	      3.48194573	    -17.99915967	     11.15969285	     11.15969285	     10.07256826	      3.09077099	     -6.76903547	     28.79834019	     -9.06515309	     -1.38578966	     28.42950669	     28.42950669	     10.75111186	    -14.27934161	     10.48047884	     -9.66268838	      8.31799972	      2.31858480	     18.36115402	    -17.95820827	     -7.77876806	     67.54988393	     45.02047254	      0.00000000	      0.00000000	     -3.93549777	     -9.32619356	     -5.79721544	     31.67959501	     45.49097203	      0.00000000	      0.00000000
     12.21764286	     -3.70173138	     -3.97488763	      4.30426657	      0.71146142	      0.93303939	      0.49467227	      6.52575901	      3.71695369	    -18.19749270	     10.67227638	     10.67227638	     10.23202173	      3.30816589	     -6.95702007	     29.13837331	     -8.85205095	     -1.37743676	     25.78939236	     25.78939236	     10.55905790	    -12.45698392	     10.21585778	     -9.67035238	      8.43771141	      2.08731928	     19.31508293	    -17.38173256	     -7.85857570	     69.07084408	     44.98508563	      0.00000000	      0.00000000	     -4.57701841	     -9.36467333	     -5.66878874	     31.06339878	     45.47815444	      0.00000000	      0.00000000
     12.23071429	     -3.98102254	     -4.17611260	      4.50577045	      0.70991537	      0.93218534	      0.49453107	      6.40449291	      3.96816883	    -18.32832909	     10.51241230	     10.51241230	     10.48836204	      3.28473382	     -7.08230457	     29.73815597	     -8.64931923	     -1.19502849	     23.49730394	     23.49730394	     10.33751181	    -10.88940236	     10.39927989	     -9.43989586	      8.60087777	      2.26419934	     20.17589651	    -17.21482957	     -7.89670426	     69.82624149	     44.96685218	      0.00000000	      0.00000000	     -5.03073344	     -9.36829179	     -5.61904245	     30.80821508	     45.46720264	      0.00000000	      0.00000000
